:FULLY-SPECIFIED
:FORCE-ALL-JOINTS-BE-3DOF
:DEGREES
340
root 9.38428 16.6417 12.01 6.01311 10.9801 -0.645037
lfemur 9.1358 7.12368 -11.4856
ltibia 38.9571 0 0
lfoot 10.9042 0.164468 0
ltoes -11.4603 0 0
rfemur -35.0507 1.50547 23.1371
rtibia 41.2011 0 0
rfoot -11.811 1.49647 0
rtoes -13.825 0 0
lowerback -6.63539 -4.53575 -2.82135
upperback -1.45911 -5.93582 3.21548
thorax 2.82831 -2.99731 4.34693
lowerneck -20.1569 -5.34517 -12.8955
upperneck 21.1219 -6.94757 13.7296
head 11.1472 -2.61638 6.13678
lclavicle 7.71572e-15 -6.93264e-15 0
lhumerus -28.7273 -22.915 101.361
lradius 26.013 0 0
lwrist 3.51739 0 0
lhand -10.8833 -23.9855 0
lfingers 7.12502 0 0
lthumb 15.133 5.44193 0
rclavicle 7.71572e-15 -6.93264e-15 0
rhumerus -46.2774 4.56064 -81.1508
rradius 30.3237 0 0
rwrist -14.8064 0 0
rhand -28.0517 -24.0242 0
rfingers 7.12502 0 0
rthumb -1.43589 -54.0001 0
341
root 9.36913 16.6751 12.1566 6.01875 10.8782 -0.827114
lfemur 7.49257 6.97685 -11.5208
ltibia 41.6849 0 0
lfoot 11.1751 1.6625 0
ltoes -12.0816 0 0
rfemur -34.2765 1.74315 23.4734
rtibia 40.7822 0 0
rfoot -12.23 1.5317 0
rtoes -13.6711 0 0
lowerback -6.52796 -4.39422 -2.67011
upperback -1.43265 -5.75959 3.22567
thorax 2.76419 -2.90767 4.30004
lowerneck -20.2024 -5.4492 -13.0746
upperneck 20.9995 -7.08727 13.9818
head 11.1521 -2.66453 6.23791
lclavicle 1.14014e-14 3.53363e-16 0
lhumerus -28.7308 -21.9401 100.995
lradius 24.9412 0 0
lwrist 3.34399 0 0
lhand -10.7079 -23.2527 0
lfingers 7.12502 0 0
lthumb 15.3019 6.16159 0
rclavicle 1.14014e-14 3.53363e-16 0
rhumerus -45.8881 4.53717 -81.1541
rradius 30.7177 0 0
rwrist -15.6431 0 0
rhand -28.2094 -23.12 0
rfingers 7.12502 0 0
rthumb -1.5882 -53.0945 0
342
root 9.35399 16.7085 12.3031 6.03227 10.763 -0.992505
lfemur 5.85947 6.8653 -11.5865
ltibia 44.2402 0 0
lfoot 11.2177 3.12404 0
ltoes -12.472 0 0
rfemur -33.5028 1.97613 23.7907
rtibia 40.325 0 0
rfoot -12.5815 1.55412 0
rtoes -13.349 0 0
lowerback -6.42886 -4.24833 -2.52943
upperback -1.41275 -5.57625 3.23067
thorax 2.69824 -2.81441 4.25342
lowerneck -20.2219 -5.5447 -13.2364
upperneck 20.8787 -7.21534 14.2026
head 11.1487 -2.71047 6.32574
lclavicle 1.48169e-14 6.8111e-15 0
lhumerus -28.8157 -21.1083 100.66
lradius 24.0181 0 0
lwrist 3.20402 0 0
lhand -10.5232 -22.5332 0
lfingers 7.12502 0 0
lthumb 15.4797 6.86724 0
rclavicle 1.48169e-14 6.8111e-15 0
rhumerus -45.5318 4.62735 -81.2226
rradius 31.1678 0 0
rwrist -16.4945 0 0
rhand -28.3705 -22.5253 0
rfingers 7.12502 0 0
rthumb -1.74373 -52.4982 0
343
root 9.33885 16.742 12.4496 6.05283 10.6598 -1.13299
lfemur 4.19306 6.82746 -11.6488
ltibia 46.6941 0 0
lfoot 10.9473 4.4229 0
ltoes -12.3893 0 0
rfemur -32.7326 2.16987 24.089
rtibia 39.8481 0 0
rfoot -12.8508 1.56448 0
rtoes -12.7681 0 0
lowerback -6.33867 -4.11091 -2.40954
upperback -1.40728 -5.40225 3.23169
thorax 2.62573 -2.72565 4.21215
lowerneck -20.2078 -5.62312 -13.3561
upperneck 20.7735 -7.32088 14.3584
head 11.1364 -2.75134 6.38526
lclavicle 1.72073e-14 1.11319e-14 0
lhumerus -29.0354 -20.4537 100.396
lradius 23.299 0 0
lwrist 3.08335 0 0
lhand -10.364 -21.8898 0
lfingers 7.12502 0 0
lthumb 15.6331 7.49854 0
rclavicle 1.72073e-14 1.11319e-14 0
rhumerus -45.2325 4.87978 -81.3777
rradius 31.6784 0 0
rwrist -17.2993 0 0
rhand -28.5563 -22.4469 0
rfingers 7.12502 0 0
rthumb -1.9232 -52.418 0
344
root 9.32969 16.7735 12.5843 6.08416 10.5629 -1.24338
lfemur 2.49323 6.87656 -11.7157
ltibia 49.0313 0 0
lfoot 10.2922 5.62939 0
ltoes -11.7231 0 0
rfemur -31.9645 2.32967 24.3635
rtibia 39.328 0 0
rfoot -12.9985 1.55305 0
rtoes -11.7303 0 0
lowerback -6.25296 -3.97905 -2.31788
upperback -1.42029 -5.23304 3.22823
thorax 2.53984 -2.639 4.18062
lowerneck -20.1439 -5.68375 -13.4355
upperneck 20.6742 -7.40258 14.4466
head 11.1084 -2.7876 6.41556
lclavicle 1.89267e-14 1.35017e-14 0
lhumerus -29.399 -20.0096 100.203
lradius 22.7986 0 0
lwrist 2.96379 0 0
lhand -10.2068 -21.2656 0
lfingers 7.12502 0 0
lthumb 15.7845 8.11065 0
rclavicle 1.89267e-14 1.35017e-14 0
rhumerus -45.0129 5.34529 -81.6593
rradius 32.2872 0 0
rwrist -18.1196 0 0
rhand -28.7683 -23.0581 0
rfingers 7.12502 0 0
rthumb -2.12792 -53.0272 0
345
root 9.32054 16.805 12.719 6.12765 10.4509 -1.32921
lfemur 0.794736 6.98449 -11.8161
ltibia 51.1916 0 0
lfoot 9.30582 6.8585 0
ltoes -10.6451 0 0
rfemur -31.1957 2.4842 24.6135
rtibia 38.7451 0 0
rfoot -13.0283 1.51729 0
rtoes -10.2683 0 0
lowerback -6.17037 -3.84189 -2.24775
upperback -1.4463 -5.05452 3.21922
thorax 2.44298 -2.54751 4.15568
lowerneck -20.0333 -5.73328 -13.4946
upperneck 20.5679 -7.4689 14.4936
head 11.0639 -2.82161 6.42845
lclavicle 2.06501e-14 1.50045e-14 0
lhumerus -29.8657 -19.7554 100.049
lradius 22.4756 0 0
lwrist 2.85299 0 0
lhand -10.0191 -20.5988 0
lfingers 7.12502 0 0
lthumb 15.9653 8.76286 0
rclavicle 2.06501e-14 1.50045e-14 0
rhumerus -44.8583 5.99516 -82.0583
rradius 32.998 0 0
rwrist -19.0167 0 0
rhand -28.9895 -24.228 0
rfingers 7.12502 0 0
rthumb -2.34156 -54.1948 0
346
root 9.31138 16.8366 12.8537 6.17902 10.3255 -1.39836
lfemur -0.893621 7.12772 -11.9468
ltibia 53.1793 0 0
lfoot 8.09125 8.05112 0
ltoes -9.33622 0 0
rfemur -30.4275 2.63402 24.8445
rtibia 38.1238 0 0
rfoot -12.9908 1.46873 0
rtoes -8.63816 0 0
lowerback -6.09611 -3.70037 -2.18817
upperback -1.47889 -4.86888 3.20501
thorax 2.34429 -2.45241 4.13101
lowerneck -19.8968 -5.77429 -13.5363
upperneck 20.4634 -7.52358 14.5092
head 11.0111 -2.85342 6.42803
lclavicle 2.21036e-14 1.56791e-14 0
lhumerus -30.414 -19.6443 99.9269
lradius 22.3012 0 0
lwrist 2.77562 0 0
lhand -9.82205 -19.9452 0
lfingers 7.12502 0 0
lthumb 16.155 9.40106 0
rclavicle 2.21036e-14 1.56791e-14 0
rhumerus -44.7367 6.75868 -82.5225
rradius 33.765 0 0
rwrist -19.9285 0 0
rhand -29.214 -25.7073 0
rfingers 7.12502 0 0
rthumb -2.55841 -55.6716 0
347
root 9.30222 16.8681 12.9883 6.23397 10.1886 -1.45869
lfemur -2.56304 7.28267 -12.1052
ltibia 54.9986 0 0
lfoot 6.75141 9.14811 0
ltoes -7.9773 0 0
rfemur -29.661 2.7797 25.0623
rtibia 37.4888 0 0
rfoot -12.936 1.41888 0
rtoes -7.09558 0 0
lowerback -6.03538 -3.55541 -2.12817
upperback -1.5116 -4.67831 3.18596
thorax 2.2529 -2.35494 4.10031
lowerneck -19.7553 -5.80934 -13.5634
upperneck 20.3692 -7.57038 14.5032
head 10.9583 -2.88304 6.4184
lclavicle 2.30128e-14 1.55641e-14 0
lhumerus -31.0221 -19.6294 99.8265
lradius 22.2467 0 0
lwrist 2.75634 0 0
lhand -9.63692 -19.3606 0
lfingers 7.12502 0 0
lthumb 16.3332 9.97113 0
rclavicle 2.30128e-14 1.55641e-14 0
rhumerus -44.616 7.56515 -82.9997
rradius 34.5421 0 0
rwrist -20.7927 0 0
rhand -29.4359 -27.2468 0
rfingers 7.12502 0 0
rthumb -2.77277 -57.2084 0
348
root 9.29307 16.8996 13.123 6.28821 10.0421 -1.51807
lfemur -4.2047 7.42579 -12.2881
ltibia 56.6537 0 0
lfoot 5.38927 10.0903 0
ltoes -6.74923 0 0
rfemur -28.8974 2.92179 25.2725
rtibia 36.8644 0 0
rfoot -12.9143 1.37926 0
rtoes -5.89644 0 0
lowerback -5.99339 -3.40793 -2.0568
upperback -1.53801 -4.48498 3.16241
thorax 2.17797 -2.25632 4.05729
lowerneck -19.6295 -5.84101 -13.5789
upperneck 20.2941 -7.61305 14.4854
head 10.9138 -2.9105 6.40366
lclavicle 2.31038e-14 1.46981e-14 0
lhumerus -31.6683 -19.6638 99.7395
lradius 22.2833 0 0
lwrist 2.81981 0 0
lhand -9.48483 -18.9009 0
lfingers 7.12502 0 0
lthumb 16.4797 10.419 0
rclavicle 2.31038e-14 1.46981e-14 0
rhumerus -44.4642 8.34386 -83.4377
rradius 35.2833 0 0
rwrist -21.5472 0 0
rhand -29.6494 -28.5972 0
rfingers 7.12502 0 0
rthumb -2.97893 -58.5561 0
349
root 9.28391 16.9311 13.2577 6.33744 9.88773 -1.58438
lfemur -5.80982 7.53353 -12.4927
ltibia 58.1488 0 0
lfoot 4.10781 10.8187 0
ltoes -5.83289 0 0
rfemur -28.1379 3.06087 25.4808
rtibia 36.2753 0 0
rfoot -12.9759 1.3614 0
rtoes -5.29659 0 0
lowerback -5.97535 -3.25886 -1.96308
upperback -1.55167 -4.29109 3.13472
thorax 2.12862 -2.15778 3.99563
lowerneck -19.5404 -5.87185 -13.5855
upperneck 20.2468 -7.65534 14.4656
head 10.8857 -2.93582 6.38792
lclavicle 2.21024e-14 1.31198e-14 0
lhumerus -32.331 -19.7008 99.6571
lradius 22.3823 0 0
lwrist 2.99069 0 0
lhand -9.38695 -18.6218 0
lfingers 7.12502 0 0
lthumb 16.5739 10.6904 0
rclavicle 2.21024e-14 1.31198e-14 0
rhumerus -44.2494 9.02411 -83.7843
rradius 35.9426 0 0
rwrist -22.1297 0 0
rhand -29.8485 -29.5093 0
rfingers 7.12502 0 0
rthumb -3.1712 -59.4655 0
350
root 9.28294 16.9546 13.39 6.38658 9.72536 -1.65741
lfemur -7.37515 7.61728 -12.7287
ltibia 59.467 0 0
lfoot 2.85019 11.2959 0
ltoes -5.23424 0 0
rfemur -27.3744 3.18871 25.6859
rtibia 35.7021 0 0
rfoot -13.1187 1.36778 0
rtoes -5.42761 0 0
lowerback -5.99535 -3.10684 -1.83938
upperback -1.55526 -4.09505 3.09903
thorax 2.10909 -2.05852 3.90644
lowerneck -19.4789 -5.89931 -13.577
upperneck 20.2304 -7.69555 14.4379
head 10.8727 -2.95869 6.36826
lclavicle 1.92862e-14 9.93004e-15 0
lhumerus -33.0341 -19.7625 99.5779
lradius 22.5837 0 0
lwrist 3.27938 0 0
lhand -9.28971 -18.5532 0
lfingers 7.12502 0 0
lthumb 16.6676 10.7524 0
rclavicle 1.92862e-14 9.93004e-15 0
rhumerus -43.9799 9.60291 -84.0414
rradius 36.5225 0 0
rwrist -22.5143 0 0
rhand -30.0509 -29.9975 0
rfingers 7.12502 0 0
rthumb -3.36663 -59.9507 0
